<svg xmlns="http://www.w3.org/2000/svg" viewBox="0 0 1440 320"><path fill="#0099ff" fill-opacity="1" d="M0,128L0,224L41.1,224L41.1,160L82.3,160L82.3,192L123.4,192L123.4,320L164.6,320L164.6,288L205.7,288L205.7,288L246.9,288L246.9,64L288,64L288,224L329.1,224L329.1,288L370.3,288L370.3,224L411.4,224L411.4,32L452.6,32L452.6,32L493.7,32L493.7,256L534.9,256L534.9,288L576,288L576,288L617.1,288L617.1,32L658.3,32L658.3,224L699.4,224L699.4,192L740.6,192L740.6,160L781.7,160L781.7,32L822.9,32L822.9,256L864,256L864,128L905.1,128L905.1,256L946.3,256L946.3,0L987.4,0L987.4,96L1028.6,96L1028.6,32L1069.7,32L1069.7,224L1110.9,224L1110.9,64L1152,64L1152,160L1193.1,160L1193.1,32L1234.3,32L1234.3,160L1275.4,160L1275.4,128L1316.6,128L1316.6,160L1357.7,160L1357.7,96L1398.9,96L1398.9,224L1440,224L1440,0L1398.9,0L1398.9,0L1357.7,0L1357.7,0L1316.6,0L1316.6,0L1275.4,0L1275.4,0L1234.3,0L1234.3,0L1193.1,0L1193.1,0L1152,0L1152,0L1110.9,0L1110.9,0L1069.7,0L1069.7,0L1028.6,0L1028.6,0L987.4,0L987.4,0L946.3,0L946.3,0L905.1,0L905.1,0L864,0L864,0L822.9,0L822.9,0L781.7,0L781.7,0L740.6,0L740.6,0L699.4,0L699.4,0L658.3,0L658.3,0L617.1,0L617.1,0L576,0L576,0L534.9,0L534.9,0L493.7,0L493.7,0L452.6,0L452.6,0L411.4,0L411.4,0L370.3,0L370.3,0L329.1,0L329.1,0L288,0L288,0L246.9,0L246.9,0L205.7,0L205.7,0L164.6,0L164.6,0L123.4,0L123.4,0L82.3,0L82.3,0L41.1,0L41.1,0L0,0L0,0Z"></path></svg>