<svg xmlns="http://www.w3.org/2000/svg" viewBox="0 0 1440 320"><path fill="#0099ff" fill-opacity="1" d="M0,128L36.9,96L73.8,0L110.8,160L147.7,288L184.6,320L221.5,160L258.5,96L295.4,256L332.3,320L369.2,192L406.2,160L443.1,256L480,96L516.9,288L553.8,160L590.8,96L627.7,256L664.6,288L701.5,256L738.5,128L775.4,192L812.3,128L849.2,192L886.2,192L923.1,224L960,32L996.9,96L1033.8,288L1070.8,128L1107.7,0L1144.6,128L1181.5,192L1218.5,0L1255.4,32L1292.3,64L1329.2,0L1366.2,64L1403.1,0L1440,32L1440,320L1403.1,320L1366.2,320L1329.2,320L1292.3,320L1255.4,320L1218.5,320L1181.5,320L1144.6,320L1107.7,320L1070.8,320L1033.8,320L996.9,320L960,320L923.1,320L886.2,320L849.2,320L812.3,320L775.4,320L738.5,320L701.5,320L664.6,320L627.7,320L590.8,320L553.8,320L516.9,320L480,320L443.1,320L406.2,320L369.2,320L332.3,320L295.4,320L258.5,320L221.5,320L184.6,320L147.7,320L110.8,320L73.8,320L36.9,320L0,320Z"></path></svg>