 <svg xmlns="http://www.w3.org/2000/svg" viewBox="0 0 1440 320" preserveAspectRatio="none">
            <path fill="#f3f4f5" fill-opacity="1"
                d="M0,224L17.1,202.7C34.3,181,69,139,103,154.7C137.1,171,171,245,206,266.7C240,288,274,256,309,256C342.9,256,377,288,411,282.7C445.7,277,480,235,514,197.3C548.6,160,583,128,617,106.7C651.4,85,686,75,720,90.7C754.3,107,789,149,823,160C857.1,171,891,149,926,128C960,107,994,85,1029,74.7C1062.9,64,1097,64,1131,101.3C1165.7,139,1200,213,1234,208C1268.6,203,1303,117,1337,85.3C1371.4,53,1406,75,1423,85.3L1440,96L1440,320L1422.9,320C1405.7,320,1371,320,1337,320C1302.9,320,1269,320,1234,320C1200,320,1166,320,1131,320C1097.1,320,1063,320,1029,320C994.3,320,960,320,926,320C891.4,320,857,320,823,320C788.6,320,754,320,720,320C685.7,320,651,320,617,320C582.9,320,549,320,514,320C480,320,446,320,411,320C377.1,320,343,320,309,320C274.3,320,240,320,206,320C171.4,320,137,320,103,320C68.6,320,34,320,17,320L0,320Z">
            </path>
        </svg>